<svg xmlns="http://www.w3.org/2000/svg" viewBox="0 0 32 32">
  <rect width="32" height="32" rx="6" fill="#080f18"/>
  <rect x="4" y="8" width="11" height="7" rx="1.5" fill="none" stroke="#00c896" stroke-width="1.2"/>
  <rect x="17" y="8" width="11" height="7" rx="1.5" fill="none" stroke="#00c896" stroke-width="1.2"/>
  <rect x="4" y="17" width="11" height="7" rx="1.5" fill="none" stroke="#00c896" stroke-width="1.2"/>
  <rect x="17" y="17" width="11" height="7" rx="1.5" fill="none" stroke="#00c896" stroke-width="1.2"/>
  <line x1="7" y1="8" x2="7" y2="15" stroke="#00c896" stroke-width="0.6" opacity="0.5"/>
  <line x1="10" y1="8" x2="10" y2="15" stroke="#00c896" stroke-width="0.6" opacity="0.5"/>
  <line x1="13" y1="8" x2="13" y2="15" stroke="#00c896" stroke-width="0.6" opacity="0.5"/>
  <line x1="20" y1="8" x2="20" y2="15" stroke="#00c896" stroke-width="0.6" opacity="0.5"/>
  <line x1="23" y1="8" x2="23" y2="15" stroke="#00c896" stroke-width="0.6" opacity="0.5"/>
  <line x1="26" y1="8" x2="26" y2="15" stroke="#00c896" stroke-width="0.6" opacity="0.5"/>
  <line x1="4" y1="11.5" x2="15" y2="11.5" stroke="#00c896" stroke-width="0.6" opacity="0.5"/>
  <line x1="17" y1="11.5" x2="28" y2="11.5" stroke="#00c896" stroke-width="0.6" opacity="0.5"/>
  <line x1="4" y1="20.5" x2="15" y2="20.5" stroke="#00c896" stroke-width="0.6" opacity="0.5"/>
  <line x1="17" y1="20.5" x2="28" y2="20.5" stroke="#00c896" stroke-width="0.6" opacity="0.5"/>
</svg>
